solid OpenSCAD_Model
  facet normal 1 -0 0
    outer loop
      vertex 1 1 5
      vertex 1 10 1
      vertex 1 10 5
    endloop
  endfacet
  facet normal 1 0 0
    outer loop
      vertex 1 10 1
      vertex 1 1 5
      vertex 1 1 1
    endloop
  endfacet
  facet normal -1 0 0
    outer loop
      vertex 14 1 1
      vertex 14 10 5
      vertex 14 10 1
    endloop
  endfacet
  facet normal -1 -0 0
    outer loop
      vertex 14 10 5
      vertex 14 1 1
      vertex 14 1 5
    endloop
  endfacet
  facet normal 0 -1 0
    outer loop
      vertex 1 10 1
      vertex 14 10 5
      vertex 1 10 5
    endloop
  endfacet
  facet normal 0 -1 -0
    outer loop
      vertex 14 10 5
      vertex 1 10 1
      vertex 14 10 1
    endloop
  endfacet
  facet normal 0 0 1
    outer loop
      vertex 14 10 1
      vertex 10 5.75 1
      vertex 14 1 1
    endloop
  endfacet
  facet normal 0 0 1
    outer loop
      vertex 14 10 1
      vertex 5 5.75 1
      vertex 10 5.75 1
    endloop
  endfacet
  facet normal 0 0 1
    outer loop
      vertex 5 5.75 1
      vertex 1 10 1
      vertex 5 5.25 1
    endloop
  endfacet
  facet normal -0 0 1
    outer loop
      vertex 1 10 1
      vertex 5 5.75 1
      vertex 14 10 1
    endloop
  endfacet
  facet normal -0 0 1
    outer loop
      vertex 10 5.25 1
      vertex 14 1 1
      vertex 10 5.75 1
    endloop
  endfacet
  facet normal -0 0 1
    outer loop
      vertex 5 5.25 1
      vertex 14 1 1
      vertex 10 5.25 1
    endloop
  endfacet
  facet normal 0 0 1
    outer loop
      vertex 5 5.25 1
      vertex 1 1 1
      vertex 14 1 1
    endloop
  endfacet
  facet normal 0 0 1
    outer loop
      vertex 1 1 1
      vertex 5 5.25 1
      vertex 1 10 1
    endloop
  endfacet
  facet normal 0 1 -0
    outer loop
      vertex 14 1 1
      vertex 1 1 5
      vertex 14 1 5
    endloop
  endfacet
  facet normal 0 1 0
    outer loop
      vertex 1 1 5
      vertex 14 1 1
      vertex 1 1 1
    endloop
  endfacet
  facet normal 1 -0 0
    outer loop
      vertex 5 5.25 1
      vertex 5 5.75 0
      vertex 5 5.75 1
    endloop
  endfacet
  facet normal 1 0 0
    outer loop
      vertex 5 5.75 0
      vertex 5 5.25 1
      vertex 5 5.25 0
    endloop
  endfacet
  facet normal -1 0 0
    outer loop
      vertex 10 5.25 0
      vertex 10 5.75 1
      vertex 10 5.75 0
    endloop
  endfacet
  facet normal -1 -0 0
    outer loop
      vertex 10 5.75 1
      vertex 10 5.25 0
      vertex 10 5.25 1
    endloop
  endfacet
  facet normal 0 1 -0
    outer loop
      vertex 10 5.25 0
      vertex 5 5.25 1
      vertex 10 5.25 1
    endloop
  endfacet
  facet normal 0 1 0
    outer loop
      vertex 5 5.25 1
      vertex 10 5.25 0
      vertex 5 5.25 0
    endloop
  endfacet
  facet normal 0 -1 0
    outer loop
      vertex 5 5.75 0
      vertex 10 5.75 1
      vertex 5 5.75 1
    endloop
  endfacet
  facet normal 0 -1 -0
    outer loop
      vertex 10 5.75 1
      vertex 5 5.75 0
      vertex 10 5.75 0
    endloop
  endfacet
  facet normal -1 0 0
    outer loop
      vertex 0 0 0
      vertex 0 11 5
      vertex 0 11 0
    endloop
  endfacet
  facet normal -1 -0 0
    outer loop
      vertex 0 11 5
      vertex 0 0 0
      vertex 0 0 5
    endloop
  endfacet
  facet normal 0 0 1
    outer loop
      vertex 15 11 5
      vertex 14 10 5
      vertex 15 0 5
    endloop
  endfacet
  facet normal 0 0 1
    outer loop
      vertex 15 11 5
      vertex 1 10 5
      vertex 14 10 5
    endloop
  endfacet
  facet normal 0 0 1
    outer loop
      vertex 1 10 5
      vertex 0 11 5
      vertex 1 1 5
    endloop
  endfacet
  facet normal -0 0 1
    outer loop
      vertex 0 11 5
      vertex 1 10 5
      vertex 15 11 5
    endloop
  endfacet
  facet normal -0 0 1
    outer loop
      vertex 14 1 5
      vertex 15 0 5
      vertex 14 10 5
    endloop
  endfacet
  facet normal -0 0 1
    outer loop
      vertex 1 1 5
      vertex 15 0 5
      vertex 14 1 5
    endloop
  endfacet
  facet normal 0 0 1
    outer loop
      vertex 1 1 5
      vertex 0 0 5
      vertex 15 0 5
    endloop
  endfacet
  facet normal 0 0 1
    outer loop
      vertex 0 0 5
      vertex 1 1 5
      vertex 0 11 5
    endloop
  endfacet
  facet normal 1 -0 0
    outer loop
      vertex 15 0 5
      vertex 15 11 0
      vertex 15 11 5
    endloop
  endfacet
  facet normal 1 0 0
    outer loop
      vertex 15 11 0
      vertex 15 0 5
      vertex 15 0 0
    endloop
  endfacet
  facet normal 0 1 -0
    outer loop
      vertex 15 11 0
      vertex 0 11 5
      vertex 15 11 5
    endloop
  endfacet
  facet normal 0 1 0
    outer loop
      vertex 0 11 5
      vertex 15 11 0
      vertex 0 11 0
    endloop
  endfacet
  facet normal 0 0 -1
    outer loop
      vertex 15 0 0
      vertex 10 5.25 0
      vertex 15 11 0
    endloop
  endfacet
  facet normal 0 0 -1
    outer loop
      vertex 15 0 0
      vertex 5 5.25 0
      vertex 10 5.25 0
    endloop
  endfacet
  facet normal -0 0 -1
    outer loop
      vertex 5 5.25 0
      vertex 0 0 0
      vertex 5 5.75 0
    endloop
  endfacet
  facet normal 0 0 -1
    outer loop
      vertex 0 0 0
      vertex 5 5.25 0
      vertex 15 0 0
    endloop
  endfacet
  facet normal 0 0 -1
    outer loop
      vertex 10 5.75 0
      vertex 15 11 0
      vertex 10 5.25 0
    endloop
  endfacet
  facet normal 0 0 -1
    outer loop
      vertex 5 5.75 0
      vertex 15 11 0
      vertex 10 5.75 0
    endloop
  endfacet
  facet normal 0 0 -1
    outer loop
      vertex 5 5.75 0
      vertex 0 11 0
      vertex 15 11 0
    endloop
  endfacet
  facet normal 0 0 -1
    outer loop
      vertex 0 11 0
      vertex 5 5.75 0
      vertex 0 0 0
    endloop
  endfacet
  facet normal 0 -1 0
    outer loop
      vertex 0 0 0
      vertex 15 0 5
      vertex 0 0 5
    endloop
  endfacet
  facet normal 0 -1 -0
    outer loop
      vertex 15 0 5
      vertex 0 0 0
      vertex 15 0 0
    endloop
  endfacet
endsolid OpenSCAD_Model
