solid OpenSCAD_Model
  facet normal 1 -0 0
    outer loop
      vertex 1 1 4
      vertex 1 11 1
      vertex 1 11 4
    endloop
  endfacet
  facet normal 1 0 0
    outer loop
      vertex 1 11 1
      vertex 1 1 4
      vertex 1 1 1
    endloop
  endfacet
  facet normal -1 0 0
    outer loop
      vertex 30 1 1
      vertex 30 11 4
      vertex 30 11 1
    endloop
  endfacet
  facet normal -1 -0 0
    outer loop
      vertex 30 11 4
      vertex 30 1 1
      vertex 30 1 4
    endloop
  endfacet
  facet normal 0 -1 0
    outer loop
      vertex 1 11 1
      vertex 30 11 4
      vertex 1 11 4
    endloop
  endfacet
  facet normal 0 -1 -0
    outer loop
      vertex 30 11 4
      vertex 1 11 1
      vertex 30 11 1
    endloop
  endfacet
  facet normal -0 0 1
    outer loop
      vertex 1 11 1
      vertex 30 1 1
      vertex 30 11 1
    endloop
  endfacet
  facet normal 0 0 1
    outer loop
      vertex 30 1 1
      vertex 1 11 1
      vertex 1 1 1
    endloop
  endfacet
  facet normal 0 1 -0
    outer loop
      vertex 30 1 1
      vertex 1 1 4
      vertex 30 1 4
    endloop
  endfacet
  facet normal 0 1 0
    outer loop
      vertex 1 1 4
      vertex 30 1 1
      vertex 1 1 1
    endloop
  endfacet
  facet normal 1 -0 0
    outer loop
      vertex 0.5 0.5 5
      vertex 0.5 11.5 4
      vertex 0.5 11.5 5
    endloop
  endfacet
  facet normal 1 0 0
    outer loop
      vertex 0.5 11.5 4
      vertex 0.5 0.5 5
      vertex 0.5 0.5 4
    endloop
  endfacet
  facet normal -1 0 0
    outer loop
      vertex 30.5 0.5 4
      vertex 30.5 11.5 5
      vertex 30.5 11.5 4
    endloop
  endfacet
  facet normal -1 -0 0
    outer loop
      vertex 30.5 11.5 5
      vertex 30.5 0.5 4
      vertex 30.5 0.5 5
    endloop
  endfacet
  facet normal 0 -1 0
    outer loop
      vertex 0.5 11.5 4
      vertex 30.5 11.5 5
      vertex 0.5 11.5 5
    endloop
  endfacet
  facet normal 0 -1 -0
    outer loop
      vertex 30.5 11.5 5
      vertex 0.5 11.5 4
      vertex 30.5 11.5 4
    endloop
  endfacet
  facet normal 0 0 1
    outer loop
      vertex 30.5 11.5 4
      vertex 30 11 4
      vertex 30.5 0.5 4
    endloop
  endfacet
  facet normal 0 0 1
    outer loop
      vertex 30.5 11.5 4
      vertex 1 11 4
      vertex 30 11 4
    endloop
  endfacet
  facet normal 0 0 1
    outer loop
      vertex 1 11 4
      vertex 0.5 11.5 4
      vertex 1 1 4
    endloop
  endfacet
  facet normal -0 0 1
    outer loop
      vertex 0.5 11.5 4
      vertex 1 11 4
      vertex 30.5 11.5 4
    endloop
  endfacet
  facet normal -0 0 1
    outer loop
      vertex 30 1 4
      vertex 30.5 0.5 4
      vertex 30 11 4
    endloop
  endfacet
  facet normal -0 0 1
    outer loop
      vertex 1 1 4
      vertex 30.5 0.5 4
      vertex 30 1 4
    endloop
  endfacet
  facet normal 0 0 1
    outer loop
      vertex 1 1 4
      vertex 0.5 0.5 4
      vertex 30.5 0.5 4
    endloop
  endfacet
  facet normal 0 0 1
    outer loop
      vertex 0.5 0.5 4
      vertex 1 1 4
      vertex 0.5 11.5 4
    endloop
  endfacet
  facet normal 0 1 -0
    outer loop
      vertex 30.5 0.5 4
      vertex 0.5 0.5 5
      vertex 30.5 0.5 5
    endloop
  endfacet
  facet normal 0 1 0
    outer loop
      vertex 0.5 0.5 5
      vertex 30.5 0.5 4
      vertex 0.5 0.5 4
    endloop
  endfacet
  facet normal -1 0 0
    outer loop
      vertex 0 0 0
      vertex 0 12 5
      vertex 0 12 0
    endloop
  endfacet
  facet normal -1 -0 0
    outer loop
      vertex 0 12 5
      vertex 0 0 0
      vertex 0 0 5
    endloop
  endfacet
  facet normal 0 0 1
    outer loop
      vertex 31 12 5
      vertex 30.5 11.5 5
      vertex 31 0 5
    endloop
  endfacet
  facet normal 0 0 1
    outer loop
      vertex 31 12 5
      vertex 0.5 11.5 5
      vertex 30.5 11.5 5
    endloop
  endfacet
  facet normal 0 0 1
    outer loop
      vertex 0.5 11.5 5
      vertex 0 12 5
      vertex 0.5 0.5 5
    endloop
  endfacet
  facet normal -0 0 1
    outer loop
      vertex 0 12 5
      vertex 0.5 11.5 5
      vertex 31 12 5
    endloop
  endfacet
  facet normal -0 0 1
    outer loop
      vertex 30.5 0.5 5
      vertex 31 0 5
      vertex 30.5 11.5 5
    endloop
  endfacet
  facet normal -0 0 1
    outer loop
      vertex 0.5 0.5 5
      vertex 31 0 5
      vertex 30.5 0.5 5
    endloop
  endfacet
  facet normal 0 0 1
    outer loop
      vertex 0.5 0.5 5
      vertex 0 0 5
      vertex 31 0 5
    endloop
  endfacet
  facet normal 0 0 1
    outer loop
      vertex 0 0 5
      vertex 0.5 0.5 5
      vertex 0 12 5
    endloop
  endfacet
  facet normal 1 -0 0
    outer loop
      vertex 31 0 5
      vertex 31 12 0
      vertex 31 12 5
    endloop
  endfacet
  facet normal 1 0 0
    outer loop
      vertex 31 12 0
      vertex 31 0 5
      vertex 31 0 0
    endloop
  endfacet
  facet normal 0 1 -0
    outer loop
      vertex 31 12 0
      vertex 0 12 5
      vertex 31 12 5
    endloop
  endfacet
  facet normal 0 1 0
    outer loop
      vertex 0 12 5
      vertex 31 12 0
      vertex 0 12 0
    endloop
  endfacet
  facet normal 0 0 -1
    outer loop
      vertex 0 0 0
      vertex 31 12 0
      vertex 31 0 0
    endloop
  endfacet
  facet normal -0 0 -1
    outer loop
      vertex 31 12 0
      vertex 0 0 0
      vertex 0 12 0
    endloop
  endfacet
  facet normal 0 -1 0
    outer loop
      vertex 0 0 0
      vertex 31 0 5
      vertex 0 0 5
    endloop
  endfacet
  facet normal 0 -1 -0
    outer loop
      vertex 31 0 5
      vertex 0 0 0
      vertex 31 0 0
    endloop
  endfacet
endsolid OpenSCAD_Model
